<svg width="40" height="40" viewBox="0 0 40 40" fill="none" xmlns="http://www.w3.org/2000/svg">
<g clip-path="url(#clip0_96_72)">
<path d="M28.5 3H11.5C6.80558 3 3 6.80558 3 11.5V28.5C3 33.1944 6.80558 37 11.5 37H28.5C33.1944 37 37 33.1944 37 28.5V11.5C37 6.80558 33.1944 3 28.5 3Z" stroke="white" stroke-width="5" stroke-linecap="round" stroke-linejoin="round"/>
<path d="M29.3499 10.6499H29.3669M26.7999 18.9289C27.0097 20.3437 26.768 21.7887 26.1093 23.0582C25.4505 24.3278 24.4082 25.3573 23.1307 26.0003C21.8531 26.6434 20.4053 26.8672 18.9931 26.64C17.581 26.4128 16.2765 25.746 15.2651 24.7347C14.2538 23.7233 13.587 22.4188 13.3598 21.0067C13.1326 19.5945 13.3564 18.1467 13.9994 16.8691C14.6425 15.5916 15.672 14.5493 16.9416 13.8905C18.2111 13.2318 19.6561 12.9901 21.0709 13.1999C22.5141 13.4139 23.8501 14.0864 24.8818 15.118C25.9134 16.1497 26.5859 17.4857 26.7999 18.9289Z" stroke="white" stroke-width="5" stroke-linecap="round" stroke-linejoin="round"/>
</g>
<defs>
<clipPath id="clip0_96_72">
<rect width="40" height="40" fill="white"/>
</clipPath>
</defs>
</svg>
