<svg width="20" height="20" viewBox="0 0 20 20" fill="none" xmlns="http://www.w3.org/2000/svg">
<path d="M14.7075 11.175C14.0525 12.5025 13.165 13.825 12.2575 15.0125C11.3957 16.1313 10.4752 17.2036 9.5 18.225C8.52477 17.2036 7.60431 16.1313 6.7425 15.0125C5.835 13.825 4.9475 12.5025 4.2925 11.175C3.63 9.83375 3.25 8.5775 3.25 7.5C3.25 5.8424 3.90848 4.25269 5.08058 3.08058C6.25269 1.90848 7.8424 1.25 9.5 1.25C11.1576 1.25 12.7473 1.90848 13.9194 3.08058C15.0915 4.25269 15.75 5.8424 15.75 7.5C15.75 8.5775 15.3688 9.83375 14.7075 11.175ZM9.5 20C9.5 20 17 12.8925 17 7.5C17 5.51088 16.2098 3.60322 14.8033 2.1967C13.3968 0.790176 11.4891 0 9.5 0C7.51088 0 5.60322 0.790176 4.1967 2.1967C2.79018 3.60322 2 5.51088 2 7.5C2 12.8925 9.5 20 9.5 20Z" fill="white"/>
<path d="M9.5 10C8.83696 10 8.20107 9.73661 7.73223 9.26777C7.26339 8.79893 7 8.16304 7 7.5C7 6.83696 7.26339 6.20107 7.73223 5.73223C8.20107 5.26339 8.83696 5 9.5 5C10.163 5 10.7989 5.26339 11.2678 5.73223C11.7366 6.20107 12 6.83696 12 7.5C12 8.16304 11.7366 8.79893 11.2678 9.26777C10.7989 9.73661 10.163 10 9.5 10ZM9.5 11.25C10.4946 11.25 11.4484 10.8549 12.1517 10.1517C12.8549 9.44839 13.25 8.49456 13.25 7.5C13.25 6.50544 12.8549 5.55161 12.1517 4.84835C11.4484 4.14509 10.4946 3.75 9.5 3.75C8.50544 3.75 7.55161 4.14509 6.84835 4.84835C6.14509 5.55161 5.75 6.50544 5.75 7.5C5.75 8.49456 6.14509 9.44839 6.84835 10.1517C7.55161 10.8549 8.50544 11.25 9.5 11.25Z" fill="white"/>
</svg>
