<svg width="40" height="41" viewBox="0 0 40 41" fill="none" xmlns="http://www.w3.org/2000/svg">
<path d="M20 0.576965C16.0444 0.576965 12.1776 1.74994 8.8886 3.94757C5.59962 6.1452 3.03617 9.26877 1.52242 12.9233C0.00866568 16.5778 -0.387401 20.5991 0.384303 24.4788C1.15601 28.3584 3.06082 31.922 5.85787 34.7191C8.65492 37.5161 12.2186 39.421 16.0982 40.1927C19.9778 40.9644 23.9992 40.5683 27.6537 39.0545C31.3082 37.5408 34.4318 34.9773 36.6294 31.6884C38.827 28.3994 40 24.5326 40 20.577C40 17.9505 39.4827 15.3498 38.4776 12.9233C37.4725 10.4968 35.9993 8.292 34.1421 6.43483C32.285 4.57766 30.0802 3.10447 27.6537 2.09937C25.2272 1.09428 22.6264 0.576965 20 0.576965ZM26.36 30.881C26.2854 31.0678 26.1716 31.2365 26.0264 31.3757C25.8811 31.515 25.7078 31.6215 25.5179 31.6882C25.3281 31.7549 25.1262 31.7802 24.9258 31.7624C24.7254 31.7446 24.5311 31.6841 24.356 31.585L18.926 27.365L15.442 30.581C15.3611 30.6407 15.2666 30.6791 15.167 30.6927C15.0674 30.7064 14.9659 30.6947 14.872 30.659L15.54 24.681L15.56 24.699L15.574 24.581C15.574 24.581 25.344 15.685 25.742 15.307C26.146 14.929 26.012 14.847 26.012 14.847C26.036 14.387 25.29 14.847 25.29 14.847L12.344 23.175L6.95401 21.339C6.95401 21.339 6.12601 21.043 6.04801 20.389C5.96601 19.741 6.98001 19.389 6.98001 19.389L28.414 10.873C28.414 10.873 30.176 10.089 30.176 11.389L26.36 30.881Z" fill="white"/>
</svg>
