<svg width="39" height="42" viewBox="0 0 39 42" fill="none" xmlns="http://www.w3.org/2000/svg">
<path d="M33.3166 5.988C31.5198 4.08243 29.3797 2.57155 27.021 1.5435C24.6623 0.515439 22.1322 -0.00921869 19.5784 0.000122576C8.87789 0.000122576 0.156784 9.15684 0.156784 20.3918C0.156784 23.9928 1.05829 27.4909 2.74372 30.5774L0 41.1539L10.2889 38.3143C13.1307 39.9399 16.3251 40.8041 19.5784 40.8041C30.2789 40.8041 39 31.6474 39 20.4124C39 14.9595 36.9814 9.83588 33.3166 5.988ZM19.5784 37.3472C16.6779 37.3472 13.8362 36.5241 11.3472 34.9809L10.7593 34.6105L4.64472 36.2978L6.27136 30.0424L5.8794 29.4045C4.26794 26.7027 3.41228 23.5797 3.41005 20.3918C3.41005 11.0499 10.6613 3.43647 19.5588 3.43647C23.8703 3.43647 27.9271 5.20608 30.9648 8.41608C32.4689 9.98808 33.6609 11.8579 34.4717 13.9172C35.2824 15.9764 35.6958 18.1842 35.6879 20.4124C35.7271 29.7543 28.4759 37.3472 19.5784 37.3472ZM28.4367 24.6718C27.9467 24.4249 25.5558 23.1903 25.1246 23.0051C24.6739 22.8405 24.3603 22.7582 24.0271 23.252C23.694 23.7664 22.7729 24.9188 22.4985 25.248C22.2241 25.5978 21.9301 25.6389 21.4402 25.3714C20.9502 25.1245 19.3824 24.5689 17.5402 22.8405C16.0899 21.4824 15.1296 19.8157 14.8357 19.3013C14.5613 18.7868 14.7965 18.5193 15.0513 18.2518C15.2668 18.0255 15.5412 17.6551 15.7764 17.367C16.0116 17.0789 16.1095 16.8526 16.2663 16.5234C16.4231 16.1736 16.3447 15.8855 16.2271 15.6386C16.1095 15.3916 15.1296 12.8813 14.7377 11.8524C14.3457 10.8647 13.9342 10.9882 13.6402 10.9676H12.6995C12.3663 10.9676 11.8568 11.0911 11.406 11.6055C10.9749 12.1199 9.7206 13.3545 9.7206 15.8649C9.7206 18.3753 11.4648 20.8034 11.7 21.1326C11.9352 21.4824 15.1296 26.6266 19.9899 28.8284C21.1462 29.3634 22.0477 29.672 22.7533 29.8984C23.9095 30.2893 24.9678 30.2276 25.8106 30.1041C26.7513 29.9601 28.6915 28.8695 29.0834 27.6761C29.495 26.4826 29.495 25.4743 29.3578 25.248C29.2206 25.0216 28.9266 24.9187 28.4367 24.6718Z" fill="white"/>
</svg>
