<svg width="40" height="40" viewBox="0 0 40 40" fill="none" xmlns="http://www.w3.org/2000/svg">
<path d="M30 21.25L32.39 25.8787L37.5 26.6213L33.75 30L34.7137 35L30 32.1875L25.2863 35L26.25 30L22.5 26.6213L27.75 25.8787L30 21.25ZM7.5 20H15V22.5H7.5V20ZM7.5 15H20V17.5H7.5V15ZM7.5 10H20V12.5H7.5V10Z" fill="#B8995E"/>
<path d="M20 32.5H5V7.5H35V20H37.5V7.5C37.5 6.83696 37.2366 6.20107 36.7678 5.73223C36.2989 5.26339 35.663 5 35 5H5C4.33696 5 3.70107 5.26339 3.23223 5.73223C2.76339 6.20107 2.5 6.83696 2.5 7.5V32.5C2.5 33.163 2.76339 33.7989 3.23223 34.2678C3.70107 34.7366 4.33696 35 5 35H20V32.5Z" fill="#B8995E"/>
</svg>
