<svg width="40" height="40" viewBox="0 0 40 40" fill="none" xmlns="http://www.w3.org/2000/svg">
<path d="M36.9125 7.6875C36.7225 7.57779 36.5069 7.52003 36.2875 7.52003C36.0681 7.52003 35.8525 7.57779 35.6625 7.6875L25 12.975V8.75C24.9994 8.53692 24.9443 8.32754 24.8399 8.14175C24.7356 7.95596 24.5855 7.79992 24.4039 7.68845C24.2223 7.57699 24.0152 7.5138 23.8023 7.50488C23.5894 7.49596 23.3778 7.54161 23.1875 7.6375L12.5 12.975V3.75C12.5 3.41848 12.3683 3.10054 12.1339 2.86612C11.8995 2.6317 11.5815 2.5 11.25 2.5H3.75C3.41848 2.5 3.10054 2.6317 2.86612 2.86612C2.6317 3.10054 2.5 3.41848 2.5 3.75V35H37.5V8.75C37.5004 8.53757 37.4467 8.32854 37.3439 8.14263C37.2411 7.95673 37.0926 7.80009 36.9125 7.6875ZM27.5 32.5H22.5V23.75H27.5V32.5ZM35 32.5H30V22.5C30 22.1685 29.8683 21.8505 29.6339 21.6161C29.3995 21.3817 29.0815 21.25 28.75 21.25H21.25C20.9185 21.25 20.6005 21.3817 20.3661 21.6161C20.1317 21.8505 20 22.1685 20 22.5V32.5H5V5H10V17.025L22.5 10.775V17.025L35 10.775V32.5Z" fill="#B8995E"/>
</svg>
