<svg width="40" height="40" viewBox="0 0 40 40" fill="none" xmlns="http://www.w3.org/2000/svg">
<path fill-rule="evenodd" clip-rule="evenodd" d="M23.875 6.25H16.125C15.8801 7.45111 15.2873 8.55368 14.4205 9.42047C13.5537 10.2873 12.4512 10.88 11.25 11.125V12.2083C12.4512 12.4533 13.5537 13.0461 14.4205 13.9129C15.2873 14.7797 15.8801 15.8822 16.125 17.0833H23.875C24.12 15.8822 24.7128 14.7797 25.5796 13.9129C26.4464 13.0461 27.5489 12.4533 28.75 12.2083V11.125C27.5489 10.88 26.4464 10.2873 25.5796 9.42047C24.7128 8.55368 24.12 7.45111 23.875 6.25ZM24.8834 3.755C24.4256 3.75055 23.9378 3.74889 23.42 3.75H16.58C16.0623 3.75 15.575 3.75166 15.1184 3.755C15.0273 3.74918 14.9359 3.75085 14.845 3.76C14.0917 3.77333 13.4234 3.805 12.8434 3.88333C11.7967 4.02333 10.8517 4.33333 10.0934 5.09166C9.33337 5.85166 9.02337 6.79666 8.88337 7.84166C8.80504 8.42333 8.77337 9.09166 8.76004 9.845C8.75098 9.93527 8.74931 10.0261 8.75504 10.1167C8.75059 10.5756 8.74893 11.0633 8.75004 11.58V11.7533C8.75004 12.27 8.7517 12.7578 8.75504 13.2167C8.74931 13.3072 8.75098 13.3981 8.76004 13.4883C8.77337 14.2433 8.80504 14.91 8.88337 15.49C9.02337 16.5367 9.33337 17.4817 10.0934 18.24C10.8517 19 11.7967 19.31 12.8434 19.45C13.4234 19.5283 14.0917 19.56 14.845 19.5733C14.9359 19.5825 15.0273 19.5842 15.1184 19.5783C15.575 19.5828 16.0623 19.5844 16.58 19.5833H23.42C23.9367 19.5833 24.4245 19.5817 24.8834 19.5783C24.9739 19.5841 25.0648 19.5824 25.155 19.5733C25.91 19.56 26.5784 19.5283 27.1567 19.45C28.2034 19.31 29.1484 19 29.9067 18.24C30.6667 17.4817 30.9767 16.5367 31.1167 15.49C31.1943 14.8255 31.2355 14.1573 31.24 13.4883C31.2491 13.3981 31.2508 13.3072 31.245 13.2167C31.2495 12.7578 31.2511 12.27 31.25 11.7533V11.58C31.25 11.0633 31.2484 10.5756 31.245 10.1167C31.2508 10.0261 31.2491 9.93527 31.24 9.845C31.2355 9.17603 31.1943 8.5078 31.1167 7.84333C30.9767 6.79666 30.6667 5.85166 29.9084 5.09333C29.1484 4.33333 28.2034 4.02333 27.1584 3.88333C26.4933 3.80567 25.8246 3.7645 25.155 3.76C25.0648 3.75094 24.9739 3.74927 24.8834 3.755ZM26.49 6.32333C26.679 6.82179 26.9717 7.27446 27.3486 7.65142C27.7256 8.02837 28.1782 8.32101 28.6767 8.51C28.6662 8.39864 28.6534 8.28751 28.6384 8.17666C28.5367 7.40666 28.3567 7.07666 28.1384 6.86C27.92 6.64333 27.5934 6.465 26.825 6.36C26.7142 6.34554 26.6031 6.33332 26.4917 6.32333M28.6784 14.8233C28.1799 15.0123 27.7272 15.305 27.3503 15.6819C26.9733 16.0589 26.6807 16.5115 26.4917 17.01C26.6084 16.9989 26.7195 16.9867 26.825 16.9733C27.595 16.8683 27.925 16.69 28.1417 16.4733C28.3584 16.2567 28.5384 15.9267 28.6417 15.1567C28.655 15.0511 28.6673 14.94 28.6784 14.8233ZM13.5117 17.01C13.3227 16.5115 13.0301 16.0589 12.6531 15.6819C12.2762 15.305 11.8235 15.0123 11.325 14.8233C11.3361 14.94 11.3489 15.0511 11.3634 15.1567C11.4667 15.9267 11.645 16.2567 11.8634 16.4733C12.0817 16.69 12.4084 16.8683 13.1767 16.9733C13.2834 16.9867 13.395 16.9989 13.5117 17.01ZM11.325 8.51C11.8235 8.32101 12.2762 8.02837 12.6531 7.65142C13.0301 7.27446 13.3227 6.82179 13.5117 6.32333C13.395 6.33444 13.2839 6.34722 13.1784 6.36166C12.4084 6.465 12.0784 6.64333 11.8617 6.86166C11.645 7.08 11.4667 7.40666 11.3617 8.175L11.325 8.51ZM20 11.25C19.8895 11.25 19.7835 11.2939 19.7054 11.372C19.6273 11.4502 19.5834 11.5562 19.5834 11.6667C19.5834 11.7772 19.6273 11.8832 19.7054 11.9613C19.7835 12.0394 19.8895 12.0833 20 12.0833C20.1105 12.0833 20.2165 12.0394 20.2947 11.9613C20.3728 11.8832 20.4167 11.7772 20.4167 11.6667C20.4167 11.5562 20.3728 11.4502 20.2947 11.372C20.2165 11.2939 20.1105 11.25 20 11.25ZM17.0834 11.6667C17.0834 10.8931 17.3907 10.1513 17.9376 9.60427C18.4846 9.05729 19.2265 8.75 20 8.75C20.7736 8.75 21.5155 9.05729 22.0624 9.60427C22.6094 10.1513 22.9167 10.8931 22.9167 11.6667C22.9167 12.4402 22.6094 13.1821 22.0624 13.7291C21.5155 14.276 20.7736 14.5833 20 14.5833C19.2265 14.5833 18.4846 14.276 17.9376 13.7291C17.3907 13.1821 17.0834 12.4402 17.0834 11.6667ZM14.4734 24.08C17.5834 23.4783 20.9117 23.6133 23.6067 25.22C23.9834 25.445 24.34 25.7267 24.6484 26.0733C25.275 26.7783 25.5984 27.6517 25.6134 28.5283C25.9311 28.3217 26.2517 28.0956 26.575 27.85L29.5884 25.575C30.3433 25.021 31.2553 24.7222 32.1917 24.7222C33.1281 24.7222 34.0401 25.021 34.795 25.575C36.1867 26.625 36.7434 28.5133 35.745 30.1133C35.0367 31.2483 33.97 32.82 32.8834 33.8267C31.7834 34.8433 30.2217 35.7 29.04 36.27C27.6034 36.9633 26.0534 37.3467 24.545 37.59C21.4617 38.09 18.255 38.0133 15.2084 37.385C13.6372 37.062 12.0374 36.8983 10.4334 36.8967H6.6667C6.33518 36.8967 6.01724 36.765 5.78282 36.5305C5.5484 36.2961 5.4167 35.9782 5.4167 35.6467C5.4167 35.3151 5.5484 34.9972 5.78282 34.7628C6.01724 34.5284 6.33518 34.3967 6.6667 34.3967H10.4334C12.2034 34.3967 13.9917 34.5817 15.7134 34.9367C18.4903 35.5065 21.3474 35.5692 24.1467 35.1217C25.5267 34.8983 26.8167 34.5667 27.9534 34.0183C29.0917 33.4683 30.3717 32.745 31.1834 31.9933C32.005 31.2317 32.9234 29.9133 33.625 28.79C33.8367 28.45 33.8067 27.9617 33.2884 27.57C32.6717 27.1033 31.71 27.1033 31.095 27.57L28.0834 29.845C26.88 30.7533 25.4 31.725 23.565 32.0183C23.3728 32.0487 23.18 32.0754 22.9867 32.0983C22.8911 32.115 22.7917 32.1261 22.6884 32.1317C21.6176 32.2356 20.5392 32.2356 19.4684 32.1317C19.3024 32.1196 19.1404 32.0746 18.9921 31.9991C18.8437 31.9237 18.7119 31.8193 18.6044 31.6923C18.4969 31.5652 18.4159 31.4179 18.366 31.2591C18.3162 31.1003 18.2986 30.9331 18.3143 30.7674C18.3299 30.6017 18.3785 30.4408 18.4572 30.2941C18.5359 30.1474 18.643 30.0179 18.7724 29.9132C18.9018 29.8085 19.0508 29.7307 19.2107 29.6844C19.3705 29.638 19.538 29.6241 19.7034 29.6433C20.628 29.7328 21.5591 29.7311 22.4834 29.6383L22.5334 29.6333C22.6889 29.5368 22.821 29.407 22.9203 29.2533C23.0195 29.0995 23.0834 28.9256 23.1073 28.7442C23.1312 28.5627 23.1146 28.3782 23.0586 28.204C23.0025 28.0298 22.9086 27.8702 22.7834 27.7367C22.6497 27.5914 22.4952 27.4667 22.325 27.3667C20.3567 26.1917 17.7267 25.9967 14.9484 26.5333C12.2343 27.0782 9.66143 28.176 7.39004 29.7583C7.25609 29.8533 7.10474 29.921 6.94464 29.9575C6.78454 29.994 6.61881 29.9986 6.45693 29.9711C6.29505 29.9435 6.14017 29.8843 6.00115 29.7969C5.86214 29.7095 5.74169 29.5956 5.6467 29.4617C5.55171 29.3277 5.48404 29.1764 5.44754 29.0163C5.41104 28.8562 5.40643 28.6904 5.43398 28.5286C5.48962 28.2016 5.67285 27.9102 5.94337 27.7183C8.50558 25.9307 11.4097 24.692 14.4734 24.08Z" fill="#B8995E"/>
</svg>
