<svg width="1280" height="1280" viewBox="0 0 1280 1280" fill="none" xmlns="http://www.w3.org/2000/svg">
<path d="M835.625 324.375L847.5 325.625L856.875 328.125L867.5 333.125L875.625 339.375L883.75 346.875L888.75 352.5L894.375 360.625L898.125 367.5L902.5 377.5L904.375 386.875V396.875L902.5 406.875L896.875 420L890.625 430.625L883.125 440.625L875.625 449.375L868.125 457.5L860 465L852.5 471.875L845.625 477.5L838.125 483.75L827.5 491.875L815 500.625L806.875 506.25L786.25 520L774.375 527.5L763.75 534.375L751.25 541.875L741.875 548.125L738.75 550.625L738.125 566.25V626.875L739.375 651.25L741.875 677.5L745.625 707.5L749.375 730.625L753.75 749.375L761.25 776.875L766.875 792.5L773.125 806.875L780 819.375L787.5 830L793.125 836.875L800.625 844.375L810 851.25L820 856.25L828.125 858.75L835.625 860H856.875L873.125 857.5L885 854.375L894.375 850.625L904.375 845.625L914.375 839.375L925.625 831.25L933.75 824.375L940.625 818.75L947.5 811.875H948.75V810.625L953.75 806.25L958.75 801.25L963.75 796.875L976.25 784.375L980.625 779.375L986.25 773.75L987.5 771.875H988.75L990 769.375L1000 759.375L1004.38 754.375L1010 748.75L1014.38 743.75L1021.88 735.625L1028.12 728.75L1032.5 723.75L1039.38 716.25L1045 709.375L1053.12 700.625L1058.75 693.75L1066.25 685L1074.38 675.625L1080 668.75L1085 663.75L1089.38 658.75L1100.62 646.25L1105 641.25L1108.75 636.875H1110L1111.25 634.375L1120.62 624.375L1127.5 616.875L1136.88 606.875L1142.5 601.25L1146.88 596.25L1169.38 573.75H1170.62L1171.25 571.875L1176.25 567.5L1181.88 561.875L1186.88 557.5L1193.75 551.25L1200.62 545.625L1211.25 536.875L1221.25 529.375L1229.38 524.375L1236.25 521.25H1242.5L1245.62 523.125L1247.5 525.625L1249.38 531.25L1250 535V541.875L1246.88 546.25L1238.12 552.5L1233.12 557.5L1226.25 563.125L1217.5 570.625L1212.5 575L1205 581.875L1200 586.25L1192.5 593.125L1186.88 598.75L1181.88 603.125L1171.25 613.75L1166.88 618.75L1155 630.625L1149.38 637.5L1143.75 643.125L1139.38 648.125L1133.75 654.375L1126.88 662.5L1118.12 671.875L1113.75 676.875L1107.5 683.75L1101.88 690.625L1097.5 695L1093.12 700L1087.5 706.25L1083.12 711.25L1077.5 717.5L1076.88 718.75H1075.62L1074.38 721.25L1066.25 730.625L1058.75 739.375L1051.88 747.5L1046.25 753.75L1044.38 756.25H1043.12L1041.88 758.75L1036.25 764.375L1031.88 769.375L1025.62 776.25L1021.25 781.25L1016.25 786.25L1011.88 791.25L1005 798.125L1000.62 803.125L980.625 823.125H979.375L978.75 825L973.75 829.375L968.75 834.375L963.75 838.75L954.375 846.875L947.5 852.5L936.875 860.625L926.875 866.875L918.75 871.875L908.75 876.875L893.75 882.5L880 886.25L863.125 888.75L846.25 890H838.125L825 888.75L811.25 885.625L801.25 881.25L792.5 876.25L784.375 870L776.875 863.125L768.75 855L759.375 842.5L753.75 833.125L748.125 823.125L740 805.625L731.875 782.5L726.25 762.5L719.375 731.875L715.625 710L712.5 684.375L709.375 646.875L708.125 621.875V567.5L695.625 573.75L685.625 579.375L668.125 589.375L650.625 598.75L638.75 605L621.875 614.375L604.375 624.375L590 633.125L575 643.125L568.125 648.125L563.75 651.875L564.375 656.875L565 658.75L566.25 685.625V717.5L565 744.375L563.125 762.5L558.75 790.625L554.375 811.25L546.25 839.375L541.25 851.875L535.625 864.375L528.75 875.625L523.125 883.75L517.5 890.625L510.625 898.125L503.75 903.75L495.625 908.75L483.125 913.75L473.125 915.625H465L455 914.375L444.375 911.25L435 906.25L426.875 900L420.625 893.125L415 883.75L409.375 873.125L405 860L403.125 847.5L402.5 840V831.875L404.375 815.625L407.5 801.25L411.875 786.875L418.125 771.875L423.125 761.875L430.625 748.125L438.125 736.25L449.375 719.375L456.25 710.625L461.875 703.75L469.375 695L475.625 688.75L478.75 685L481.875 681.875H483.125L484.375 679.375H485.625L486.25 677.5L491.25 673.125L499.375 665L504.375 660.625L510.625 655L519.375 648.125L530 639.375L532.5 636.25L531.875 628.75L525.625 595.625L518.125 564.375L513.125 546.875L505.625 523.75L497.5 502.5L490.625 486.25L483.75 471.875L475.625 458.125L470.625 450.625L462.5 440.625L454.375 432.5L445 425.625L431.875 419.375L423.75 416.875L416.875 415.625L409.375 415H401.875L390 416.25L377.5 418.75L368.125 421.25L352.5 427.5L340 433.125L324.375 442.5L314.375 448.75L298.125 461.25L291.25 467.5L285 472.5L271.25 486.25L266.875 491.25L258.75 500.625L253.125 507.5L246.25 516.25L238.125 526.875L233.75 533.75L222.5 550.625L217.5 558.75L208.75 573.125L203.125 582.5L187.5 610.625L177.5 629.375L172.5 639.375L168.75 645.625L163.125 657.5L158.125 666.25L151.875 679.375L145.625 691.25L132.5 716.875L121.25 738.75L111.875 756.25L104.375 769.375L98.75 778.75L93.125 788.75L88.75 795.625L81.25 808.125L73.75 819.375L68.125 827.5L63.125 835L56.875 843.75L51.25 849.375L47.5 851.25H41.875L36.25 848.75L31.25 844.375L30 841.875V835.625L32.5 829.375L41.875 814.375L48.125 805.625L57.5 789.375L61.25 783.125L69.375 769.375L78.125 754.375L86.25 739.375L91.875 729.375L96.875 719.375L103.125 707.5L113.75 686.875L119.375 676.25L133.75 647.5L140 635.625L145 625.625L152.5 611.25L160 597.5L168.75 581.875L174.375 571.875L184.375 555L188.75 547.5L195.625 536.875L201.875 527.5L208.75 517.5L217.5 505L224.375 495.625L231.875 486.25L237.5 479.375L244.375 471.875L248.75 466.875L257.5 457.5L261.875 453.125L266.875 448.75L273.125 443.125L281.875 436.25L291.25 428.75L310 416.25L319.375 410.625L336.25 401.875L348.75 396.25L367.5 390L381.875 386.875L391.25 385.625L408.125 385L423.75 386.25L435.625 388.75L444.375 391.875L454.375 396.875L463.125 402.5L470.625 408.125L483.125 419.375L487.5 424.375L495 433.75L502.5 445L510 458.125L517.5 473.125L525.625 491.875L532.5 510L540 532.5L545 550L550 570.625L556.875 603.125L558.75 613.75V618.125L567.5 613.125L578.75 605.625L596.875 595L605 590L616.25 583.75L626.25 578.125L655 562.5L669.375 555L682.5 547.5L698.75 538.75L707.5 533.125L710 530L710.625 528.125L711.875 515L715.625 493.75L721.875 465L726.875 447.5L734.375 425L741.25 408.75L746.25 398.75L753.75 384.375L762.5 371.25L768.75 362.5L775.625 354.375L781.25 348.125L787.5 342.5L795.625 336.875L806.875 330.625L816.875 326.875L826.875 325L835.625 324.375ZM830.625 353.75L821.25 356.875L814.375 360.625L808.125 365.625L800.625 372.5L793.125 380.625L786.875 389.375L781.25 398.75L776.875 405.625L770 420L763.75 433.75L758.125 448.75L748.75 481.25L740.625 513.75L750 508.75L761.875 501.25L784.375 486.25L795 478.75L803.75 472.5L815.625 463.75L825.625 455.625L833.75 448.75L842.5 441.25L853.125 431.25L858.75 424.375L865 416.25L870 408.125L874.375 398.75L875 396.875V389.375L872.5 381.25L868.75 375L862.5 366.875L855.625 360.625L846.875 355.625L840.625 353.75H830.625ZM535.625 672.5L527.5 678.75L520.625 684.375L505.625 699.375L504.375 700V701.25H503.125L498.75 706.25L491.875 713.125L486.25 720L478.125 730L470.625 740.625L466.25 746.875L460 756.875L452.5 770L445.625 784.375L438.75 802.5L434.375 818.75L432.5 831.25V847.5L435 858.75L440 870L445 876.25L451.875 881.875L459.375 885.625L463.125 886.875H473.125L479.375 884.375L487.5 879.375L495 873.125L501.875 864.375L506.875 856.25L515 839.375L519.375 827.5L528.125 792.5L531.25 773.75L535 738.125L536.875 710L537.5 684.375V672.5H535.625Z" fill="#FEFEFE"/>
<path d="M164.375 728.125L170 728.75L172.5 730L175.625 736.25L178.125 745.625L181.875 760.625L191.875 793.125L200 816.25L206.875 832.5L212.5 845L222.5 865.625L228.75 876.875L234.375 886.875L240.625 896.875L249.375 910L256.875 920.625L265.625 932.5L273.75 942.5L279.375 949.375L285 955.625L290.625 962.5L300 972.5L304.375 976.875L308.125 981.25L309.375 981.875V983.125L311.875 984.375L320.625 993.125L325.625 997.5L332.5 1003.75L339.375 1009.38L347.5 1016.25L358.125 1024.38L370 1033.12L385 1043.12L398.75 1051.88L411.875 1059.38L426.875 1067.5L436.875 1072.5L453.75 1080.62L480 1091.25L502.5 1098.75L520 1103.75L535.625 1107.5L558.125 1111.88L589.375 1116.25L616.25 1118.75L628.125 1119.38H659.375L678.125 1118.12L705.625 1115L733.125 1110.62L754.375 1106.25L770 1101.88L794.375 1094.38L813.125 1087.5L830 1080.62L847.5 1072.5L861.25 1065.62L875.625 1057.5L887.5 1050.62L899.375 1043.12L911.25 1035L922.5 1026.88L930.625 1020.62L941.25 1012.5L947.5 1006.88L952.5 1002.5L958.75 996.875L963.75 992.5L968.75 987.5L973.75 983.125L983.125 973.75L987.5 968.75L994.375 961.875L998.75 956.875L1005.62 948.75L1010.62 942.5L1018.75 931.875L1025.62 922.5L1033.75 911.25L1040 901.875L1045.62 892.5L1055 876.25L1066.25 854.375L1071.88 842.5L1079.38 825L1087.5 803.75L1096.88 775L1102.5 755L1106.25 746.25L1109.38 741.875L1113.75 741.25L1125 744.375L1130.62 748.125L1131.88 750V756.875L1127.5 777.5L1119.38 803.75L1113.12 822.5L1105 842.5L1095 865L1090 874.375L1084.38 886.25L1078.75 895.625L1070 910.625L1058.75 927.5L1049.38 941.25L1043.75 948.75L1036.25 958.125L1029.38 966.875L1021.88 975.625L1016.25 981.875L1008.75 990.625L1003.12 996.25L1001.88 998.125H1000.62V999.375L995.625 1003.75L984.375 1015L977.5 1020.62L970.625 1026.88L962.5 1033.12L954.375 1040L938.125 1052.5L930.625 1058.12L912.5 1070L900.625 1077.5L885 1086.25L870 1094.38L851.875 1103.12L834.375 1110.62L816.875 1117.5L791.875 1126.25L761.875 1134.38L736.875 1139.38L706.875 1144.38L686.25 1146.88L669.375 1148.12L651.875 1148.75H626.875L600 1147.5L580 1145.62L563.125 1143.12L540 1138.75L522.5 1135L505.625 1130.62L480 1122.5L454.375 1113.12L434.375 1104.38L416.25 1095.62L406.25 1090.62L392.5 1083.12L376.875 1073.75L360 1062.5L350 1055.62L340 1048.12L331.25 1041.25L324.375 1035.62L314.375 1027.5L306.875 1020.62L301.875 1016.25L291.875 1006.88L273.75 988.75L269.375 983.75L260.625 974.375L253.75 965.625L246.25 956.25L237.5 944.375L230 934.375L221.875 921.875L215 911.25L209.375 901.875L200.625 886.25L194.375 874.375L189.375 864.375L181.875 848.75L175.625 833.75L168.75 816.25L160 790.625L152.5 763.75L149.375 750L148.125 743.125V737.5L151.25 732.5L153.75 730.625L164.375 728.125Z" fill="#FEFEFE"/>
<path d="M620.625 129.375H651.25L681.25 131.25L700.625 133.125L725 136.875L755.625 143.75L773.75 148.75L799.375 156.875L823.75 166.25L842.5 174.375L859.375 182.5L871.25 188.75L881.875 194.375L892.5 200.625L908.125 210.625L915.625 215.625L925.625 222.5L938.75 232.5L946.25 238.125L956.25 246.25L973.75 261.25L977.5 264.375V265.625L980 266.875L1000 286.875L1004.38 291.875L1013.12 301.25L1018.75 308.125L1024.38 314.375L1030.62 322.5L1039.38 333.75L1046.88 344.375L1055.62 356.875L1063.75 370L1071.25 382.5L1079.38 397.5L1088.12 414.375L1096.25 431.875L1103.12 448.75L1110 466.875L1117.5 490L1122.5 508.75L1127.5 528.125L1129.38 540V546.25L1126.25 549.375L1120 552.5L1112.5 554.375L1105.62 553.125L1102.5 549.375L1099.38 540L1094.38 520L1085.62 490.625L1075 461.25L1068.12 445L1060 426.875L1051.25 409.375L1042.5 394.375L1036.88 384.375L1020.62 360L1013.12 350L1006.88 341.875L1000 333.75L995 327.5L989.375 321.25L983.75 314.375L978.125 308.75L973.75 303.75L957.5 287.5L952.5 283.125L944.375 275.625L937.5 270L930 263.75L919.375 255.625L907.5 246.875L897.5 240L885 231.875L872.5 224.375L860.625 217.5L840 206.875L823.125 198.75L798.125 188.75L772.5 180L750 173.75L731.875 169.375L706.875 165L678.125 161.25L655 159.375L635.625 158.75H623.125L598.75 160L575 162.5L545.625 167.5L525 171.875L508.75 176.25L490 181.875L465.625 190.625L439.375 201.875L417.5 212.5L403.75 220L388.125 229.375L376.25 236.875L358.75 249.375L347.5 257.5L338.75 264.375L322.5 278.125L320.625 280H319.375V281.25H318.125V282.5L313.125 286.875L288.75 311.25L284.375 316.25L278.75 322.5L273.125 329.375L268.125 335L263.125 341.25L256.875 349.375L249.375 360L242.5 370L236.875 378.75L228.125 393.125L222.5 402.5L215 416.25L208.125 430.625L203.125 441.25L192.5 466.25L183.125 489.375L176.25 504.375L173.125 509.375H168.75L162.5 506.25L153.125 498.75L151.25 495L152.5 488.75L159.375 470L163.75 457.5L171.25 438.75L178.125 423.75L185.625 408.125L193.75 392.5L199.375 382.5L207.5 368.75L215.625 356.25L221.875 346.875L229.375 336.875L237.5 326.25L245 316.25L253.125 306.25L260 298.75L264.375 293.75L271.25 286.25L290.625 266.875L295.625 262.5L306.25 252.5L313.125 246.875L321.25 240L331.25 232.5L342.5 224.375L353.125 216.875L362.5 210.625L374.375 203.125L390.625 193.75L400.625 188.125L422.5 176.875L441.875 168.125L460.625 160.625L472.5 156.25L498.125 148.125L525.625 141.25L550.625 136.25L570.625 133.125L596.25 130.625L620.625 129.375Z" fill="#FEFEFE"/>
</svg>
